<?xml version="1.0" encoding="UTF-8" standalone="no"?>
<!DOCTYPE svg PUBLIC "-//W3C//DTD SVG 1.1//EN" "http://www.w3.org/Graphics/SVG/1.1/DTD/svg11.dtd">
<svg width="100%" height="100%" viewBox="0 0 1000 1000" version="1.1" xmlns="http://www.w3.org/2000/svg" xmlns:xlink="http://www.w3.org/1999/xlink" xml:space="preserve" xmlns:serif="http://www.serif.com/" style="fill-rule:evenodd;clip-rule:evenodd;stroke-linejoin:round;stroke-miterlimit:2;">
    <g transform="matrix(21.231423,0,0,21.231423,-8742.332364,-6364.961742)">
        <path d="M439.76385,328.1397L439.76385,327.8397C439.76385,327.57303 439.64719,327.30636 439.41385,327.0397C439.18052,326.77303 438.89719,326.6397 438.56385,326.6397L426.76385,326.6397C425.56385,326.6397 424.48052,326.39803 423.51385,325.9147C422.54719,325.43136 421.72219,324.8147 421.03885,324.0647C420.35552,323.3147 419.83052,322.4897 419.46385,321.5897C419.09719,320.6897 418.91385,319.80636 418.91385,318.9397C418.91385,318.1397 419.18885,317.23136 419.73885,316.2147C420.28885,315.19803 421.00552,314.23136 421.88885,313.3147C422.77219,312.39803 423.77219,311.63136 424.88885,311.0147C426.00552,310.39803 427.13052,310.0897 428.26385,310.0897L458.86385,310.0897C457.93052,311.22303 456.88052,312.35636 455.71385,313.4897C454.54719,314.62303 453.23052,315.75636 451.76385,316.8897C451.76385,316.8897 432.93983,316.87112 432.11385,316.8897C431.32647,316.90741 430.36947,317.42953 430.36947,318.48336C430.36947,319.53718 431.34987,320.14406 432.16385,320.1397C433.03234,320.13504 443.56385,320.1397 443.56385,320.1397C444.86385,320.1397 445.98052,320.39803 446.91385,320.9147C447.84719,321.43136 448.59719,322.08136 449.16385,322.8647C449.73052,323.64803 450.14719,324.4897 450.41385,325.3897C450.68052,326.2897 450.81385,327.12303 450.81385,327.8897L450.81385,328.1897C450.81385,329.05636 450.57219,329.98136 450.08885,330.9647C449.60552,331.94803 448.97219,332.85636 448.18885,333.6897C447.40552,334.52303 446.50552,335.2147 445.48885,335.7647C444.47219,336.3147 443.43052,336.5897 442.36385,336.5897L411.76385,336.5897C411.96385,336.25636 412.37219,335.72303 412.98885,334.9897C413.60552,334.25636 414.26385,333.5147 414.96385,332.7647C415.66385,332.0147 416.31385,331.34803 416.91385,330.7647C417.51385,330.18136 417.88052,329.8897 418.01385,329.8897L437.91385,329.8897C438.51385,329.8897 438.97219,329.7147 439.28885,329.3647C439.60552,329.0147 439.76385,328.60636 439.76385,328.1397Z" style="fill-rule:nonzero;"/>
    </g>
</svg>
